# Blender v2.82 (sub 7) OBJ File: ''
# www.blender.org
mtllib dach.mtl
o Cube.001
v -1.000000 0.000000 1.046815
v -0.219315 0.969962 0.000000
v -1.000000 0.000000 -1.046815
v 1.000000 0.000000 1.046815
v 0.219315 0.969962 0.000000
v 1.000000 0.000000 -1.046815
vt 1.080780 0.434848
vt 0.436646 1.199501
vt -0.206014 0.433609
vt 1.051809 0.073191
vt 0.608090 1.176809
vt 0.391910 1.176809
vt -0.051809 0.073191
vt 1.080780 0.434848
vt 0.436646 1.199501
vt -0.206014 0.433609
vt 0.598790 0.026210
vt 0.104650 1.223790
vt -0.104650 1.223790
vt -0.598790 0.026210
vt 0.375000 0.250000
vt 0.375000 0.500000
vt 0.125000 0.500000
vt 0.125000 0.250000
vn -0.7790 0.6270 0.0000
vn 0.0000 0.7335 -0.6797
vn 0.7790 0.6270 0.0000
vn 0.0000 0.7335 0.6797
vn 0.0000 -1.0000 0.0000
usemtl Material.001
s off
f 1/1/1 2/2/1 3/3/1
f 3/4/2 2/5/2 5/6/2 6/7/2
f 6/8/3 5/9/3 4/10/3
f 4/11/4 5/12/4 2/13/4 1/14/4
f 3/15/5 6/16/5 4/17/5 1/18/5
