# Blender v2.91.0 OBJ File: 'motor.blend'
# www.blender.org
mtllib motor_left_mirror.mtl
o left_mirror_Cylinder.003
v -0.311547 0.838911 -1.144216
v -0.302839 0.877853 -1.138716
v -0.291312 0.910969 -1.118897
v -0.278721 0.933218 -1.087776
v -0.266983 0.941213 -1.050089
v -0.257885 0.933736 -1.011576
v -0.252812 0.911926 -0.978100
v -0.252537 0.879103 -0.954756
v -0.257101 0.840264 -0.945098
v -0.265809 0.801323 -0.950598
v -0.277336 0.768207 -0.970417
v -0.289927 0.745957 -1.001539
v -0.301665 0.737963 -1.039225
v -0.310763 0.745440 -1.077738
v -0.315836 0.767250 -1.111215
v -0.316111 0.800072 -1.134559
vt 0.334645 0.454350
vt 0.250000 0.471187
vt 0.165356 0.454350
vt 0.093597 0.406403
vt 0.045650 0.334645
vt 0.028813 0.250000
vt 0.045650 0.165355
vt 0.093597 0.093597
vt 0.165356 0.045650
vt 0.250000 0.028813
vt 0.334644 0.045650
vt 0.406403 0.093597
vt 0.454350 0.165356
vt 0.471187 0.250000
vt 0.454350 0.334644
vt 0.406403 0.406403
vn -0.9499 0.1759 0.2585
usemtl mirror
s off
f 2/1/1 1/2/1 16/3/1 15/4/1 14/5/1 13/6/1 12/7/1 11/8/1 10/9/1 9/10/1 8/11/1 7/12/1 6/13/1 5/14/1 4/15/1 3/16/1
