# Blender v2.91.0 OBJ File: 'motor.blend'
# www.blender.org
mtllib motor_windshield.mtl
o windshield_Plane.002
v -0.035411 0.088326 0.264348
v 0.197769 -0.980249 0.617102
v -0.035411 0.088326 -0.264348
v 0.197769 -0.980249 -0.617102
v 0.030304 0.132080 0.000000
v 0.378164 -0.827144 0.000000
v 0.311294 -0.859958 -0.308551
v -0.015867 0.132080 -0.153307
v -0.015867 0.132080 0.153307
v 0.311294 -0.859958 0.308551
v -0.025345 -0.025017 0.350465
v -0.025345 -0.025017 -0.350465
v 0.086022 -0.001454 0.000000
v 0.030339 -0.008028 -0.175233
v 0.030339 -0.008028 0.175233
v -0.018257 0.094798 0.264348
v 0.214922 -0.973777 0.617102
v -0.018257 0.094798 -0.264348
v 0.214922 -0.973777 -0.617102
v 0.047457 0.138552 -0.000000
v 0.395318 -0.820672 -0.000000
v 0.328448 -0.853486 -0.308551
v 0.001287 0.138552 -0.153307
v 0.001287 0.138552 0.153307
v 0.328448 -0.853486 0.308551
v -0.008191 -0.018545 0.350465
v -0.008191 -0.018545 -0.350465
v 0.103176 0.005018 -0.000000
v 0.047492 -0.001556 -0.175233
v 0.047492 -0.001556 0.175233
vt 0.141232 0.750000
vt 0.141232 1.000000
vt 1.000000 1.000000
vt 1.000000 0.750000
vt 0.141232 0.250000
vt 0.141232 0.500000
vt 1.000000 0.500000
vt 1.000000 0.250000
vt 0.141232 0.000000
vt 1.000000 0.000000
vt 0.039335 0.088840
vt 0.000000 0.250000
vt 0.000000 0.500000
vt 0.000000 0.750000
vt 0.039335 0.911160
vt 0.141232 0.750000
vt 1.000000 0.750000
vt 1.000000 1.000000
vt 0.141232 1.000000
vt 0.141232 0.250000
vt 1.000000 0.250000
vt 1.000000 0.500000
vt 0.141232 0.500000
vt 0.141232 0.000000
vt 1.000000 0.000000
vt 0.039335 0.088840
vt 0.000000 0.250000
vt 0.000000 0.500000
vt 0.000000 0.750000
vt 0.039335 0.911160
vn -0.8594 -0.3268 0.3933
vn -0.9081 -0.3306 -0.2570
vn -0.9081 -0.3306 0.2570
vn -0.8594 -0.3268 -0.3933
vn -0.8941 -0.3284 -0.3046
vn -0.8911 -0.3546 0.2833
vn -0.8911 -0.3546 -0.2833
vn -0.8941 -0.3284 0.3046
vn 0.8594 0.3268 -0.3933
vn 0.9081 0.3306 0.2570
vn 0.9081 0.3306 -0.2570
vn 0.8594 0.3268 0.3933
vn 0.8941 0.3284 0.3046
vn 0.8911 0.3546 -0.2833
vn 0.8911 0.3546 0.2833
vn 0.8941 0.3284 -0.3046
vn -0.3375 0.8945 0.2931
vn 0.3529 -0.9354 0.0230
vn -0.0933 0.2474 -0.9644
vn -0.3510 0.9304 0.1057
vn 0.3437 -0.9108 -0.2287
vn -0.0933 0.2474 0.9644
vn -0.3375 0.8945 -0.2931
vn 0.3529 -0.9354 -0.0230
vn 0.3437 -0.9108 0.2287
vn -0.2181 0.5781 0.7863
vn -0.2181 0.5781 -0.7863
vn -0.3510 0.9304 -0.1057
usemtl None
s off
f 14/1/1 12/2/1 4/3/1 7/4/1
f 15/5/2 13/6/2 6/7/2 10/8/2
f 13/6/3 14/1/3 7/4/3 6/7/3
f 11/9/4 15/5/4 10/8/4 2/10/4
f 1/11/5 9/12/5 15/5/5 11/9/5
f 5/13/6 8/14/6 14/1/6 13/6/6
f 9/12/7 5/13/7 13/6/7 15/5/7
f 8/14/8 3/15/8 12/2/8 14/1/8
f 29/16/9 22/17/9 19/18/9 27/19/9
f 30/20/10 25/21/10 21/22/10 28/23/10
f 28/23/11 21/22/11 22/17/11 29/16/11
f 26/24/12 17/25/12 25/21/12 30/20/12
f 16/26/13 26/24/13 30/20/13 24/27/13
f 20/28/14 28/23/14 29/16/14 23/29/14
f 24/27/15 30/20/15 28/23/15 20/28/15
f 23/29/16 29/16/16 27/19/16 18/30/16
f 9/12/17 1/11/17 16/26/17 24/27/17
f 6/7/18 7/4/18 22/17/18 21/22/18
f 4/3/19 12/2/19 27/19/19 19/18/19
f 8/14/20 5/13/20 20/28/20 23/29/20
f 2/10/21 10/8/21 25/21/21 17/25/21
f 11/9/22 2/10/22 17/25/22 26/24/22
f 3/15/23 8/14/23 23/29/23 18/30/23
f 10/8/24 6/7/24 21/22/24 25/21/24
f 7/4/25 4/3/25 19/18/25 22/17/25
f 1/11/26 11/9/26 26/24/26 16/26/26
f 12/2/27 3/15/27 18/30/27 27/19/27
f 5/13/28 9/12/28 24/27/28 20/28/28
